<svg xmlns="http://www.w3.org/2000/svg" viewBox="0 0 468 234" width="468" height="234" font-family="ui-sans-serif,-apple-system,'Segoe UI',Roboto,'Helvetica Neue',sans-serif" role="img" aria-label="languages by size">
<rect x="0.5" y="0.5" width="467" height="233" rx="14" fill="#161b22" stroke="#30363d"/>
<g transform="translate(245.7 0)"><rect x="0" y="34.12" width="19.5" height="19.5" fill="#3178c6" stroke="#161b22"><animate attributeName="fill-opacity" values="0.0;0.2;0.4;0.6;0.8;1.0;1;1;1;1;1" dur="3s" repeatCount="1"/></rect><text x="23.4" y="43.88" dominant-baseline="middle" font-size="19.5" fill="#e6edf3">TypeScript<title>TypeScript</title><animate attributeName="fill-opacity" values="0.0;0.2;0.4;0.6;0.8;1.0;1;1;1;1;1" dur="3s" repeatCount="1"/></text><rect x="0" y="63.38" width="19.5" height="19.5" fill="#3572A5" stroke="#161b22"><animate attributeName="fill-opacity" values="0;0.0;0.2;0.4;0.6;0.8;1.0;1;1;1;1" dur="3s" repeatCount="1"/></rect><text x="23.4" y="73.12" dominant-baseline="middle" font-size="19.5" fill="#e6edf3">Python<title>Python</title><animate attributeName="fill-opacity" values="0;0.0;0.2;0.4;0.6;0.8;1.0;1;1;1;1" dur="3s" repeatCount="1"/></text><rect x="0" y="92.62" width="19.5" height="19.5" fill="#00ADD8" stroke="#161b22"><animate attributeName="fill-opacity" values="0;0;0.0;0.2;0.4;0.6;0.8;1.0;1;1;1" dur="3s" repeatCount="1"/></rect><text x="23.4" y="102.38" dominant-baseline="middle" font-size="19.5" fill="#e6edf3">Go<title>Go</title><animate attributeName="fill-opacity" values="0;0;0.0;0.2;0.4;0.6;0.8;1.0;1;1;1" dur="3s" repeatCount="1"/></text><rect x="0" y="121.88" width="19.5" height="19.5" fill="#555555" stroke="#161b22"><animate attributeName="fill-opacity" values="0;0;0;0.0;0.2;0.4;0.6;0.8;1.0;1;1" dur="3s" repeatCount="1"/></rect><text x="23.4" y="131.62" dominant-baseline="middle" font-size="19.5" fill="#e6edf3">C<title>C</title><animate attributeName="fill-opacity" values="0;0;0;0.0;0.2;0.4;0.6;0.8;1.0;1;1" dur="3s" repeatCount="1"/></text><rect x="0" y="151.12" width="19.5" height="19.5" fill="#e34c26" stroke="#161b22"><animate attributeName="fill-opacity" values="0;0;0;0;0.0;0.2;0.4;0.6;0.8;1.0;1" dur="3s" repeatCount="1"/></rect><text x="23.4" y="160.88" dominant-baseline="middle" font-size="19.5" fill="#e6edf3">HTML<title>HTML</title><animate attributeName="fill-opacity" values="0;0;0;0;0.0;0.2;0.4;0.6;0.8;1.0;1" dur="3s" repeatCount="1"/></text><rect x="0" y="180.38" width="19.5" height="19.5" fill="#444444" stroke="#161b22"><animate attributeName="fill-opacity" values="0;0;0;0;0;0.0;0.2;0.4;0.6;0.8;1.0" dur="3s" repeatCount="1"/></rect><text x="23.4" y="190.12" dominant-baseline="middle" font-size="19.5" fill="#e6edf3">other<title>other</title><animate attributeName="fill-opacity" values="0;0;0;0;0;0.0;0.2;0.4;0.6;0.8;1.0" dur="3s" repeatCount="1"/></text></g>
<g transform="translate(117 117)"><path d="M0.00 -105.30A105.3 105.3 0 1 1 -98.93 36.07L-54.96 20.04A58.5 58.5 0 1 0 0.00 -58.50Z" fill="#3178c6" stroke="#161b22" stroke-width="2"><title>TypeScript 9.1MB</title><animate attributeName="fill-opacity" values="0.0;0.2;0.4;0.6;0.8;1.0;1;1;1;1;1" dur="3s" repeatCount="1"/></path><path d="M-98.93 36.07A105.3 105.3 0 0 1 -75.72 -73.17L-42.07 -40.65A58.5 58.5 0 0 0 -54.96 20.04Z" fill="#3572A5" stroke="#161b22" stroke-width="2"><title>Python 2.3MB</title><animate attributeName="fill-opacity" values="0;0.0;0.2;0.4;0.6;0.8;1.0;1;1;1;1" dur="3s" repeatCount="1"/></path><path d="M-75.72 -73.17A105.3 105.3 0 0 1 -52.76 -91.13L-29.31 -50.63A58.5 58.5 0 0 0 -42.07 -40.65Z" fill="#00ADD8" stroke="#161b22" stroke-width="2"><title>Go 595KB</title><animate attributeName="fill-opacity" values="0;0;0.0;0.2;0.4;0.6;0.8;1.0;1;1;1" dur="3s" repeatCount="1"/></path><path d="M-52.76 -91.13A105.3 105.3 0 0 1 -34.84 -99.37L-19.36 -55.20A58.5 58.5 0 0 0 -29.31 -50.63Z" fill="#555555" stroke="#161b22" stroke-width="2"><title>C 402KB</title><animate attributeName="fill-opacity" values="0;0;0;0.0;0.2;0.4;0.6;0.8;1.0;1;1" dur="3s" repeatCount="1"/></path><path d="M-34.84 -99.37A105.3 105.3 0 0 1 -18.94 -103.58L-10.52 -57.55A58.5 58.5 0 0 0 -19.36 -55.20Z" fill="#e34c26" stroke="#161b22" stroke-width="2"><title>HTML 335KB</title><animate attributeName="fill-opacity" values="0;0;0;0;0.0;0.2;0.4;0.6;0.8;1.0;1" dur="3s" repeatCount="1"/></path><path d="M-18.94 -103.58A105.3 105.3 0 0 1 0.00 -105.30L0.00 -58.50A58.5 58.5 0 0 0 -10.52 -57.55Z" fill="#444444" stroke="#161b22" stroke-width="2"><title>other 387KB</title><animate attributeName="fill-opacity" values="0;0;0;0;0;0.0;0.2;0.4;0.6;0.8;1.0" dur="3s" repeatCount="1"/></path></g></svg>